<svg width="17px" height="17px" viewBox="0 2 17 17" version="1.1" xmlns="http://www.w3.org/2000/svg" xmlns:xlink="http://www.w3.org/1999/xlink">
    <path d="M13,3 C11.696,3 10.597,3.837 10.184,5 L7.859,5 C7.412,3.278 5.862,2 4,2 C1.791,2 0,3.791 0,6 C0,8.209 1.791,10 4,10 C4.143,10 4.278,9.972 4.418,9.958 L6.573,13.25 C6.216,13.743 6,14.345 6,15 C6,16.657 7.343,18 9,18 C10.657,18 12,16.657 12,15 C12,13.343 10.657,12 9,12 C8.729,12 8.471,12.047 8.221,12.115 L6.336,9.235 C7.079,8.698 7.622,7.913 7.859,7 L10.184,7 C10.597,8.162 11.696,9 13,9 C14.657,9 16,7.657 16,6 C16,4.343 14.657,3 13,3 L13,3 Z M2,6 C2,4.897 2.897,4 4,4 C5.103,4 6,4.897 6,6 C6,7.103 5.103,8 4,8 C2.897,8 2,7.103 2,6 L2,6 Z" id="Imported-Layers" stroke="none" fill="#333743" fill-rule="evenodd"></path>
</svg>