<svg width="23px" height="16px" viewBox="-1 40 23 16" version="1.1" xmlns="http://www.w3.org/2000/svg" xmlns:xlink="http://www.w3.org/1999/xlink">
    <g id="Twitter" stroke="none" stroke-width="1" fill="none" fill-rule="evenodd" transform="translate(0.000000, 40.000000)">
        <path d="M17.496063,2.34515296 C17.496063,2.34515296 17.496063,2.17764204 17.496063,2.34515296 C16.6299213,1.50759833 15.5905512,1.17257648 14.5511811,1.34008741 L14.5511811,1.34008741 L14.5511811,1.34008741 C15.5905512,1.17257648 16.1102362,0.837554629 16.2834646,0.670043703 C16.2834646,0.502532777 16.2834646,0.335021852 16.1102362,0.335021852 C15.5905512,0.335021852 15.0708661,0.502532777 14.7244094,0.670043703 C15.2440945,0.335021852 15.4173228,0.167510926 15.4173228,3.90798505e-14 C14.8976378,3.90798505e-14 14.3779528,0.335021852 13.6850394,0.837554629 C13.8582677,0.502532777 14.0314961,0.335021852 13.8582677,0.167510926 C13.511811,0.335021852 13.3385827,0.502532777 13.1653543,0.837554629 C12.6456693,1.34008741 12.2992126,1.67510926 12.1259843,2.17764204 L12.1259843,2.17764204 C11.4330709,3.35021852 10.9133858,4.35528407 10.5669291,5.52786055 L10.3937008,5.52786055 C10.0472441,5.02532777 9.52755906,4.522795 8.83464567,4.18777314 C8.14173228,3.68524037 7.27559055,3.35021852 6.23622047,2.84768574 C5.19685039,2.34515296 4.15748031,1.84262018 2.94488189,1.50759833 C2.94488189,2.68017481 3.46456693,3.68524037 4.67716535,4.35528407 L4.67716535,4.35528407 C4.33070866,4.35528407 3.81102362,4.35528407 3.46456693,4.522795 C3.46456693,5.52786055 4.33070866,6.36541518 5.88976378,6.70043703 L5.88976378,6.70043703 C5.37007874,6.70043703 4.8503937,6.86794796 4.33070866,7.20296981 C4.8503937,8.20803536 5.71653543,8.54305722 7.1023622,8.54305722 C6.92913386,8.71056814 6.58267717,8.87807907 6.58267717,8.87807907 C6.40944882,9.04558999 6.23622047,9.38061184 6.40944882,9.7156337 C6.75590551,10.2181665 7.1023622,10.3856774 7.96850394,10.3856774 L7.96850394,10.3856774 L7.96850394,10.3856774 C6.75590551,11.5582539 5.19685039,12.2282976 3.46456693,12.0607867 L3.46456693,12.0607867 C2.42519685,12.0607867 1.21259843,11.5582539 -2.48689958e-14,10.5531883 C1.21259843,12.2282976 2.94488189,13.568385 5.02362205,14.4059396 C7.4488189,15.0759833 9.87401575,15.2434942 12.1259843,14.5734505 L12.1259843,14.5734505 C14.3779528,13.9034068 16.4566929,12.5633194 18.015748,10.7206993 C18.7086614,9.7156337 19.2283465,8.71056814 19.4015748,7.70550259 C20.6141732,7.70550259 21.480315,7.37048073 22,6.70043703 L22,6.70043703 C21.6535433,6.86794796 20.7874016,6.86794796 19.5748031,6.53292611 L19.5748031,6.53292611 L19.5748031,6.53292611 C20.7874016,6.36541518 21.6535433,6.03039333 21.8267717,5.36034963 C20.9606299,5.69537148 20.0944882,5.69537148 19.2283465,5.36034963 C19.0551181,4.18777314 18.5354331,3.18270759 17.496063,2.34515296 L17.496063,2.34515296 Z" fill="#9297A3"></path>
    </g>
</svg>