<svg width="16px" height="16px" viewBox="0 0 16 16" version="1.1" xmlns="http://www.w3.org/2000/svg" xmlns:xlink="http://www.w3.org/1999/xlink">
    <path d="M14.5,0 L1.5,0 C0.675,0 0,0.675 0,1.5 L0,14.5 C0,15.325 0.675,16 1.5,16 L14.5,16 C15.325,16 16,15.325 16,14.5 L16,1.5 C16,0.675 15.325,0 14.5,0 Z M6,12 C3.788,12 2,10.213 2,8 C2,5.787 3.788,4 6,4 C7.081,4 7.984,4.394 8.681,5.047 L7.593,6.091 C7.296,5.807 6.777,5.475 5.999,5.475 C4.633,5.475 3.518,6.606 3.518,8 C3.518,9.394 4.634,10.525 5.999,10.525 C7.583,10.525 8.177,9.388 8.268,8.8 L5.999,8.8 L5.999,7.428 L9.777,7.428 C9.811,7.628 9.84,7.828 9.84,8.091 C9.84,10.378 8.309,12 5.999,12 L6,12 Z M14,8 L13,8 L13,9 L12,9 L12,8 L11,8 L11,7 L12,7 L12,6 L13,6 L13,7 L14,7 L14,8 Z" id="Shape" stroke="none" fill="#9297A3" fill-rule="nonzero"></path>
</svg>