<svg width="16px" height="13px" viewBox="386 144 16 13" version="1.1" xmlns="http://www.w3.org/2000/svg" xmlns:xlink="http://www.w3.org/1999/xlink">
    <defs>
        <path d="M5.9685,12 C5.653,12 5.3485,11.875 5.1241,11.6482 L0.3503,6.8489 C-0.1168,6.3794 -0.1168,5.6199 0.3503,5.1516 C0.8161,4.6821 1.5719,4.6821 2.0378,5.1516 L5.8387,8.9731 L12.1763,0.4797 C12.5718,-0.0493 13.3191,-0.1584 13.8468,0.2407 C14.3745,0.6374 14.4813,1.3896 14.0846,1.9197 L6.9232,11.5196 C6.7158,11.7986 6.3979,11.9721 6.0534,11.9964 C6.0255,11.9988 5.9964,12 5.9685,12 Z" id="path-1"></path>
    </defs>
    <g id="Page-1" stroke="none" stroke-width="1" fill="none" fill-rule="evenodd" transform="translate(387.000000, 145.000000)">
        <mask id="mask-2" fill="white">
            <use xlink:href="#path-1"></use>
        </mask>
        <g id="Clip-2"></g>
        <polygon id="Fill-1" fill="#FFFFFF" mask="url(#mask-2)" points="-5.0001 17 19.3243 17 19.3243 -5 -5.0001 -5"></polygon>
    </g>
</svg>