<svg width="12px" height="13px" viewBox="431 369 12 13" version="1.1" xmlns="http://www.w3.org/2000/svg" xmlns:xlink="http://www.w3.org/1999/xlink">
    <defs>
        <path d="M0.9865,11.8327 C0.7345,11.8327 0.4815,11.7367 0.2895,11.5437 C-0.0965,11.1587 -0.0965,10.5347 0.2895,10.1497 L4.5445,5.8947 L0.3615,1.6807 C-0.0215,1.2937 -0.0185,0.6697 0.3675,0.2857 C0.7555,-0.0973 1.3795,-0.0943 1.7625,0.2917 L5.9385,4.5007 L10.1505,0.2887 C10.5365,-0.0963 11.1605,-0.0963 11.5455,0.2887 C11.9305,0.6737 11.9305,1.2977 11.5455,1.6827 L7.3285,5.8997 L11.5485,10.1517 C11.9315,10.5387 11.9295,11.1627 11.5435,11.5467 C11.1555,11.9307 10.5315,11.9277 10.1475,11.5417 L5.9335,7.2947 L1.6835,11.5437 C1.4915,11.7367 1.2385,11.8327 0.9865,11.8327 Z" id="path-1"></path>
    </defs>
    <g id="Page-1" stroke="none" stroke-width="1" fill="none" fill-rule="evenodd" transform="translate(431.000000, 370.000000)">
        <mask id="mask-2" fill="white">
            <use xlink:href="#path-1"></use>
        </mask>
        <g id="Clip-2"></g>
        <polygon id="Fill-1" fill="#FFFFFF" mask="url(#mask-2)" points="-5 16.833 16.8344 16.833 16.8344 -5 -5 -5"></polygon>
    </g>
</svg>