<svg width="100%" height="100%" viewBox="0 0 124 24" version="1.1" xmlns="http://www.w3.org/2000/svg" xmlns:xlink="http://www.w3.org/1999/xlink" xml:space="preserve" style="fill-rule:evenodd;clip-rule:evenodd;stroke-linejoin:round;stroke-miterlimit:1.41421;">
    <g>
        <g id="Salt-fullstop">
            <circle cx="119.155" cy="22.139" r="0.899" style="fill:#000;"/>
            <circle cx="121.963" cy="22.139" r="0.899" style="fill:#000;"/>
            <circle cx="120.551" cy="20.051" r="0.899" style="fill:#000;"/>
        </g>
        <g>
            <path d="M12.029,6.165c-0.4,-0.58 -0.936,-1.006 -1.606,-1.276c-0.671,-0.27 -1.376,-0.405 -2.117,-0.405c-0.44,0 -0.866,0.05 -1.276,0.15c-0.41,0.1 -0.78,0.26 -1.111,0.48c-0.33,0.221 -0.595,0.506 -0.795,0.856c-0.201,0.35 -0.301,0.766 -0.301,1.246c0,0.721 0.251,1.271 0.751,1.651c0.5,0.381 1.121,0.711 1.861,0.991c0.741,0.28 1.552,0.551 2.432,0.811c0.881,0.26 1.692,0.62 2.432,1.081c0.741,0.46 1.361,1.071 1.862,1.831c0.5,0.761 0.75,1.772 0.75,3.033c0,1.14 -0.21,2.136 -0.63,2.987c-0.42,0.851 -0.986,1.556 -1.696,2.117c-0.711,0.56 -1.537,0.98 -2.477,1.261c-0.941,0.28 -1.932,0.42 -2.973,0.42c-1.321,0 -2.592,-0.22 -3.813,-0.661c-1.221,-0.44 -2.272,-1.18 -3.152,-2.221l2.852,-2.763c0.46,0.701 1.066,1.246 1.816,1.637c0.751,0.39 1.547,0.585 2.387,0.585c0.441,0 0.881,-0.06 1.321,-0.18c0.441,-0.12 0.841,-0.3 1.201,-0.54c0.361,-0.241 0.651,-0.546 0.871,-0.916c0.22,-0.37 0.33,-0.796 0.33,-1.276c0,-0.781 -0.25,-1.381 -0.75,-1.802c-0.501,-0.42 -1.121,-0.775 -1.862,-1.065c-0.74,-0.291 -1.551,-0.566 -2.432,-0.826c-0.88,-0.26 -1.691,-0.616 -2.432,-1.066c-0.74,-0.45 -1.361,-1.051 -1.861,-1.801c-0.501,-0.751 -0.751,-1.757 -0.751,-3.018c0,-1.101 0.225,-2.051 0.676,-2.852c0.45,-0.801 1.041,-1.466 1.771,-1.997c0.731,-0.53 1.566,-0.925 2.507,-1.186c0.941,-0.26 1.902,-0.39 2.882,-0.39c1.121,0 2.207,0.17 3.258,0.511c1.051,0.34 1.997,0.9 2.837,1.681l-2.762,2.912Z" style="fill:#000;fill-rule:nonzero;"/>
            <path d="M20.076,8.447l3.602,0l0,14.412l-3.602,0l0,-14.412Zm-0.511,-4.894c0,-0.58 0.215,-1.086 0.646,-1.516c0.43,-0.43 0.975,-0.646 1.636,-0.646c0.661,0 1.216,0.206 1.666,0.616c0.451,0.41 0.676,0.926 0.676,1.546c0,0.621 -0.225,1.136 -0.676,1.546c-0.45,0.411 -1.005,0.616 -1.666,0.616c-0.661,0 -1.206,-0.215 -1.636,-0.646c-0.431,-0.43 -0.646,-0.935 -0.646,-1.516Z" style="fill:#000;fill-rule:nonzero;"/>
            <path d="M27.642,11.509l0,-3.062l2.972,0l0,-4.173l3.603,0l0,4.173l3.963,0l0,3.062l-3.963,0l0,6.306c0,0.72 0.135,1.291 0.405,1.711c0.27,0.42 0.806,0.63 1.606,0.63c0.321,0 0.671,-0.035 1.051,-0.105c0.381,-0.07 0.681,-0.185 0.901,-0.345l0,3.032c-0.38,0.181 -0.846,0.306 -1.396,0.376c-0.551,0.07 -1.036,0.105 -1.456,0.105c-0.961,0 -1.747,-0.105 -2.357,-0.315c-0.611,-0.211 -1.091,-0.531 -1.441,-0.961c-0.351,-0.431 -0.591,-0.966 -0.721,-1.606c-0.13,-0.641 -0.195,-1.382 -0.195,-2.222l0,-6.606l-2.972,0Z" style="fill:#000;fill-rule:nonzero;"/>
            <path d="M45.386,16.914c0.12,1.081 0.54,1.921 1.261,2.522c0.72,0.6 1.591,0.901 2.612,0.901c0.901,0 1.656,-0.186 2.267,-0.556c0.61,-0.37 1.146,-0.836 1.606,-1.396l2.582,1.952c-0.841,1.04 -1.781,1.781 -2.822,2.221c-1.041,0.441 -2.132,0.661 -3.273,0.661c-1.081,0 -2.101,-0.18 -3.062,-0.541c-0.961,-0.36 -1.792,-0.87 -2.492,-1.531c-0.701,-0.66 -1.256,-1.456 -1.667,-2.387c-0.41,-0.93 -0.615,-1.966 -0.615,-3.107c0,-1.141 0.205,-2.177 0.615,-3.108c0.411,-0.93 0.966,-1.726 1.667,-2.387c0.7,-0.66 1.531,-1.171 2.492,-1.531c0.961,-0.36 1.981,-0.54 3.062,-0.54c1.001,0 1.917,0.175 2.747,0.525c0.831,0.35 1.542,0.856 2.132,1.516c0.591,0.661 1.051,1.477 1.381,2.447c0.33,0.971 0.496,2.087 0.496,3.348l0,0.991l-10.989,0Zm7.386,-2.702c-0.02,-1.061 -0.351,-1.897 -0.991,-2.507c-0.641,-0.611 -1.531,-0.916 -2.672,-0.916c-1.081,0 -1.937,0.31 -2.567,0.931c-0.631,0.62 -1.016,1.451 -1.156,2.492l7.386,0Z" style="fill:#000;fill-rule:nonzero;"/>
            <path d="M71.987,6.165c-0.4,-0.58 -0.936,-1.006 -1.606,-1.276c-0.671,-0.27 -1.376,-0.405 -2.117,-0.405c-0.44,0 -0.866,0.05 -1.276,0.15c-0.41,0.1 -0.781,0.26 -1.111,0.48c-0.33,0.221 -0.595,0.506 -0.795,0.856c-0.201,0.35 -0.301,0.766 -0.301,1.246c0,0.721 0.251,1.271 0.751,1.651c0.5,0.381 1.121,0.711 1.861,0.991c0.741,0.28 1.552,0.551 2.432,0.811c0.881,0.26 1.692,0.62 2.432,1.081c0.741,0.46 1.361,1.071 1.862,1.831c0.5,0.761 0.75,1.772 0.75,3.033c0,1.14 -0.21,2.136 -0.63,2.987c-0.42,0.851 -0.986,1.556 -1.696,2.117c-0.711,0.56 -1.537,0.98 -2.477,1.261c-0.941,0.28 -1.932,0.42 -2.973,0.42c-1.321,0 -2.592,-0.22 -3.813,-0.661c-1.221,-0.44 -2.272,-1.18 -3.152,-2.221l2.852,-2.763c0.46,0.701 1.066,1.246 1.816,1.637c0.751,0.39 1.547,0.585 2.387,0.585c0.441,0 0.881,-0.06 1.321,-0.18c0.441,-0.12 0.841,-0.3 1.201,-0.54c0.361,-0.241 0.651,-0.546 0.871,-0.916c0.22,-0.37 0.33,-0.796 0.33,-1.276c0,-0.781 -0.25,-1.381 -0.75,-1.802c-0.501,-0.42 -1.121,-0.775 -1.862,-1.065c-0.74,-0.291 -1.551,-0.566 -2.432,-0.826c-0.881,-0.26 -1.691,-0.616 -2.432,-1.066c-0.74,-0.45 -1.361,-1.051 -1.861,-1.801c-0.501,-0.751 -0.751,-1.757 -0.751,-3.018c0,-1.101 0.225,-2.051 0.676,-2.852c0.45,-0.801 1.041,-1.466 1.771,-1.997c0.731,-0.53 1.566,-0.925 2.507,-1.186c0.941,-0.26 1.902,-0.39 2.882,-0.39c1.121,0 2.207,0.17 3.258,0.511c1.051,0.34 1.997,0.9 2.837,1.681l-2.762,2.912Z" style="fill:#000;fill-rule:nonzero;"/>
            <path d="M88.981,20.877l-0.09,0c-0.521,0.821 -1.181,1.416 -1.982,1.786c-0.801,0.371 -1.681,0.556 -2.642,0.556c-0.661,0 -1.306,-0.09 -1.937,-0.27c-0.63,-0.181 -1.191,-0.451 -1.681,-0.811c-0.49,-0.36 -0.886,-0.811 -1.186,-1.351c-0.3,-0.541 -0.45,-1.171 -0.45,-1.892c0,-0.78 0.14,-1.446 0.42,-1.996c0.28,-0.551 0.656,-1.011 1.126,-1.381c0.47,-0.371 1.016,-0.666 1.636,-0.886c0.621,-0.22 1.266,-0.385 1.937,-0.495c0.67,-0.111 1.346,-0.181 2.026,-0.211c0.681,-0.03 1.321,-0.045 1.922,-0.045l0.901,0l0,-0.39c0,-0.901 -0.311,-1.576 -0.931,-2.027c-0.621,-0.45 -1.411,-0.675 -2.372,-0.675c-0.761,0 -1.471,0.135 -2.132,0.405c-0.66,0.27 -1.231,0.636 -1.711,1.096l-1.892,-1.891c0.801,-0.821 1.737,-1.412 2.808,-1.772c1.071,-0.36 2.176,-0.54 3.317,-0.54c1.021,0 1.882,0.115 2.582,0.345c0.701,0.23 1.281,0.525 1.742,0.886c0.46,0.36 0.815,0.775 1.066,1.246c0.25,0.47 0.43,0.945 0.54,1.426c0.11,0.48 0.175,0.946 0.195,1.396c0.02,0.45 0.03,0.846 0.03,1.186l0,8.287l-3.242,0l0,-1.982Zm-0.211,-4.474l-0.75,0c-0.501,0 -1.061,0.02 -1.681,0.06c-0.621,0.04 -1.206,0.136 -1.757,0.286c-0.55,0.15 -1.016,0.37 -1.396,0.66c-0.38,0.29 -0.57,0.696 -0.57,1.216c0,0.34 0.075,0.626 0.225,0.856c0.15,0.23 0.345,0.425 0.585,0.585c0.24,0.16 0.511,0.276 0.811,0.346c0.3,0.07 0.6,0.105 0.901,0.105c1.241,0 2.156,-0.296 2.747,-0.886c0.59,-0.591 0.885,-1.396 0.885,-2.417l0,-0.811Z" style="fill:#000;fill-rule:nonzero;"/>
            <rect x="97.658" y="0.16" width="3.603" height="22.698" style="fill:#000;fill-rule:nonzero;"/><path d="M105.254,11.509l0,-3.062l2.972,0l0,-4.173l3.603,0l0,4.173l3.963,0l0,3.062l-3.963,0l0,6.306c0,0.72 0.135,1.291 0.405,1.711c0.27,0.42 0.806,0.63 1.607,0.63c0.32,0 0.67,-0.035 1.05,-0.105c0.381,-0.07 0.681,-0.185 0.901,-0.345l0,3.032c-0.38,0.181 -0.846,0.306 -1.396,0.376c-0.55,0.07 -1.036,0.105 -1.456,0.105c-0.961,0 -1.747,-0.105 -2.357,-0.315c-0.611,-0.211 -1.091,-0.531 -1.441,-0.961c-0.351,-0.431 -0.591,-0.966 -0.721,-1.606c-0.13,-0.641 -0.195,-1.382 -0.195,-2.222l0,-6.606l-2.972,0Z" style="fill:#000;fill-rule:nonzero;"/>
        </g>
    </g>
</svg>
