<svg class="svg" width="19px" height="14px" viewBox="0 3 19 14" version="1.1" xmlns="http://www.w3.org/2000/svg" xmlns:xlink="http://www.w3.org/1999/xlink">
    <!-- Generator: Sketch 42 (36781) - http://www.bohemiancoding.com/sketch -->
    <desc>Created with Sketch.</desc>
    <defs></defs>
    <path d="M0.646,10.146 L6.646,4.146 C6.841,3.951 7.158,3.951 7.353,4.146 C7.548,4.341 7.548,4.658 7.353,4.853 L2.207,9.999 L18.5,9.999 C18.776,9.999 19,10.223 19,10.499 C19,10.775 18.776,10.999 18.5,10.999 L2.207,10.999 L7.353,16.145 C7.548,16.34 7.548,16.657 7.353,16.852 C7.255,16.95 7.127,16.998 6.999,16.998 C6.871,16.998 6.743,16.949 6.645,16.852 L0.645,10.852 C0.45,10.657 0.45,10.34 0.645,10.145 L0.646,10.146 Z" id="Shape" stroke="none" fill="#000000" fill-rule="nonzero"></path>
</svg>